<svg width="180" height="220" viewBox="0 0 180 220" fill="none" xmlns="http://www.w3.org/2000/svg">
<path d="M90 0C40 0 0 40 0 90C0 140 67.5 183 90 220C112.5 183 180 140 180 90C180 40 140 0 90 0Z" fill="#FFD54F"/>
<path d="M92 104C110.225 104 125 89.2254 125 71C125 52.7746 110.225 38 92 38C73.7746 38 59 52.7746 59 71C59 89.2254 73.7746 104 92 104Z" fill="#0B1020"/>
<path d="M72 60C75.3137 60 78 57.3137 78 54C78 50.6863 75.3137 48 72 48C68.6863 48 66 50.6863 66 54C66 57.3137 68.6863 60 72 60Z" fill="#00D2D3"/>
<path d="M78 57H112C128 57 140 69 140 85C140 101 128 113 112 113H78V57Z" fill="#00D2D3"/>
</svg>
